<?xml version="1.0" standalone="no"?>
<!DOCTYPE svg PUBLIC "-//W3C//DTD SVG 20010904//EN"
 "http://www.w3.org/TR/2001/REC-SVG-20010904/DTD/svg10.dtd">
<svg version="1.0" xmlns="http://www.w3.org/2000/svg"
 width="2000.000000pt" height="2000.000000pt" viewBox="0 0 2000.000000 2000.000000"
 preserveAspectRatio="xMidYMid meet">
<metadata>
Created by potrace 1.14, written by Peter Selinger 2001-2017
</metadata>
<g transform="translate(0.000000,2000.000000) scale(0.100000,-0.100000)"
fill="#000000" stroke="none">
<path d="M9618 19995 c-2 -1 -68 -6 -148 -10 -80 -3 -161 -8 -180 -10 -46 -4
-182 -15 -245 -20 -27 -2 -70 -7 -95 -10 -45 -5 -58 -7 -175 -20 -33 -4 -68
-9 -79 -11 -10 -2 -44 -6 -75 -10 -31 -3 -65 -8 -76 -10 -10 -2 -37 -6 -60 -9
-22 -3 -51 -8 -65 -10 -14 -3 -38 -7 -55 -10 -16 -3 -39 -7 -50 -9 -32 -6 -97
-16 -132 -21 -18 -2 -36 -6 -40 -8 -5 -3 -29 -8 -53 -12 -25 -4 -49 -8 -55 -9
-5 -2 -28 -6 -50 -11 -50 -10 -70 -14 -92 -19 -10 -2 -61 -14 -113 -26 -124
-28 -105 -23 -265 -64 -77 -19 -210 -56 -295 -81 -85 -25 -162 -48 -170 -49
-45 -11 -460 -154 -610 -211 -165 -63 -193 -74 -265 -105 -16 -8 -32 -14 -35
-15 -12 -4 -68 -27 -105 -44 -22 -10 -60 -27 -85 -38 -314 -140 -658 -315
-945 -481 -71 -41 -140 -80 -152 -86 -13 -6 -23 -14 -23 -18 0 -5 -4 -8 -10
-8 -11 0 -150 -86 -292 -182 -32 -21 -62 -38 -67 -38 -5 0 -11 -3 -13 -7 -1
-5 -25 -23 -53 -42 -27 -19 -84 -57 -125 -85 -41 -28 -80 -55 -86 -61 -6 -5
-22 -17 -34 -25 -39 -27 -282 -208 -324 -242 -11 -10 -25 -21 -31 -25 -19 -15
-219 -178 -248 -203 -17 -14 -41 -35 -54 -47 -13 -12 -23 -21 -23 -19 0 2 -17
-13 -38 -33 -22 -20 -70 -63 -108 -96 -209 -183 -571 -546 -794 -796 -27 -30
-43 -49 -105 -123 -22 -26 -56 -65 -75 -85 -19 -21 -46 -53 -60 -71 -27 -36
-163 -206 -183 -230 -16 -19 -87 -112 -109 -142 -9 -12 -50 -68 -90 -123 -40
-55 -98 -136 -128 -180 -30 -44 -58 -84 -63 -90 -15 -18 -187 -285 -187 -290
0 -3 -16 -29 -36 -58 -20 -28 -40 -61 -45 -72 -5 -11 -17 -32 -27 -47 -46 -71
-177 -304 -174 -310 1 -5 -2 -8 -6 -8 -12 0 -392 -761 -392 -784 0 -3 -14 -35
-31 -73 -16 -37 -34 -77 -38 -88 -5 -11 -14 -33 -22 -50 -7 -16 -13 -32 -13
-35 -1 -6 -24 -62 -53 -129 -9 -18 -16 -39 -18 -45 -1 -6 -6 -22 -12 -36 -38
-94 -181 -499 -188 -535 -3 -11 -9 -31 -15 -45 -9 -23 -89 -297 -111 -380 -5
-19 -12 -43 -14 -52 -5 -19 -12 -47 -19 -75 -3 -10 -20 -82 -39 -159 -20 -78
-38 -154 -41 -170 -10 -56 -17 -89 -26 -124 -5 -19 -12 -53 -15 -75 -4 -22 -8
-48 -11 -57 -3 -10 -7 -29 -10 -43 -4 -26 -6 -38 -23 -133 -6 -31 -12 -70 -15
-87 -9 -63 -18 -121 -22 -140 -2 -10 -6 -37 -9 -60 -4 -22 -8 -51 -10 -65 -5
-30 -16 -126 -20 -160 -1 -14 -5 -47 -9 -75 -5 -48 -11 -106 -21 -205 -5 -45
-12 -126 -20 -230 -14 -178 -19 -359 -19 -715 0 -412 5 -560 29 -830 4 -38 8
-88 10 -110 4 -59 15 -166 20 -195 2 -14 6 -50 10 -80 7 -69 17 -144 29 -222
3 -21 8 -53 11 -70 3 -18 7 -44 10 -58 2 -14 7 -41 9 -60 5 -34 9 -55 22 -130
4 -19 8 -44 9 -55 4 -23 7 -42 30 -150 9 -44 19 -91 22 -105 2 -14 10 -53 18
-86 8 -34 16 -73 19 -85 2 -13 9 -42 14 -64 6 -22 18 -69 27 -105 9 -36 18
-72 20 -80 3 -8 11 -44 20 -80 9 -36 22 -84 30 -107 8 -24 17 -57 20 -74 3
-18 11 -41 17 -53 6 -11 11 -23 10 -26 -1 -3 4 -23 10 -45 14 -48 13 -46 20
-65 17 -47 111 -346 111 -350 -1 -3 2 -9 7 -15 6 -8 29 -68 35 -95 1 -3 5 -12
8 -20 4 -8 20 -53 37 -100 17 -47 40 -104 50 -127 11 -24 20 -47 20 -53 0 -6
9 -32 21 -58 28 -63 29 -65 103 -237 93 -216 224 -489 327 -683 19 -34 43 -79
54 -100 23 -42 111 -199 125 -222 5 -8 40 -67 77 -130 71 -121 106 -177 123
-197 5 -7 10 -15 10 -18 0 -9 250 -383 267 -401 8 -8 11 -14 6 -14 -4 0 -3 -4
2 -8 6 -4 53 -65 104 -137 52 -71 103 -138 113 -148 10 -10 18 -21 18 -25 0
-4 10 -18 22 -32 13 -14 45 -55 73 -90 27 -36 53 -69 57 -75 5 -5 25 -30 46
-54 51 -61 64 -76 89 -108 12 -15 30 -37 40 -48 10 -11 47 -54 83 -95 310
-357 742 -781 1100 -1079 14 -11 31 -25 38 -31 85 -73 324 -260 331 -260 5 0
11 -4 13 -9 1 -4 59 -49 128 -100 69 -50 133 -98 143 -106 9 -8 17 -11 17 -7
0 4 4 2 8 -4 16 -24 373 -258 612 -401 85 -51 162 -98 171 -104 10 -7 19 -10
20 -8 2 2 18 -6 34 -17 17 -12 66 -40 110 -64 44 -24 104 -56 134 -73 128 -70
620 -307 639 -307 4 0 19 -7 34 -14 15 -8 67 -31 115 -51 49 -20 113 -48 144
-61 31 -13 60 -24 64 -24 4 0 21 -6 38 -14 18 -8 70 -29 117 -46 47 -17 105
-39 130 -49 25 -10 133 -46 240 -80 107 -35 202 -66 210 -69 56 -20 371 -109
454 -127 10 -3 33 -9 50 -14 17 -6 42 -12 56 -15 38 -7 61 -13 105 -24 22 -6
51 -13 65 -16 14 -2 68 -14 120 -25 52 -11 106 -22 120 -25 23 -4 101 -19 160
-31 26 -5 121 -22 164 -29 14 -3 60 -10 103 -16 43 -6 89 -13 103 -16 14 -2
43 -6 65 -9 22 -3 58 -8 80 -11 22 -3 51 -7 65 -9 14 -2 54 -6 90 -10 36 -3
81 -8 100 -10 59 -8 170 -18 325 -30 351 -27 1075 -27 1438 0 76 6 193 16 217
20 14 2 61 6 105 10 44 4 87 8 95 10 8 1 42 6 75 9 33 4 71 9 85 11 14 2 45 6
70 9 25 3 54 8 65 10 11 2 47 7 80 11 32 3 62 8 65 10 3 2 26 6 50 10 75 11
112 16 134 21 11 2 37 7 56 10 19 3 42 7 50 9 8 2 29 7 45 10 17 2 41 7 55 10
14 4 39 8 55 11 17 3 55 12 85 19 30 8 69 16 85 19 78 15 406 98 570 146 61
18 133 38 160 46 28 8 57 17 65 21 8 3 20 7 25 8 36 8 480 162 530 184 22 10
122 48 145 56 3 1 17 7 32 13 15 6 67 27 115 47 48 20 112 47 141 61 29 13 55
24 57 24 3 0 45 18 93 41 48 22 112 52 142 66 178 83 542 271 551 285 3 6 10
10 15 10 8 0 29 11 123 63 39 22 137 80 161 95 17 11 121 75 190 116 92 56
305 198 308 206 2 4 8 8 13 8 10 0 85 52 274 190 39 28 80 59 93 68 13 9 32
24 42 32 10 8 31 24 46 35 15 11 37 28 48 37 12 10 68 55 126 100 58 45 112
91 121 100 9 10 19 18 23 18 3 0 14 8 24 17 18 18 126 112 170 148 141 116
589 554 762 745 47 51 95 105 108 118 12 14 40 46 62 72 22 26 50 58 62 72 25
27 63 73 158 188 72 87 61 74 170 215 46 61 88 111 92 113 5 2 8 8 8 13 0 5
17 31 38 58 20 26 44 58 52 71 8 12 20 28 25 34 9 10 58 80 105 151 8 12 23
33 33 46 61 83 337 522 337 536 0 2 8 16 19 31 27 39 69 116 69 126 0 5 4 12
9 15 4 3 21 31 37 61 16 30 32 57 35 60 3 3 24 41 46 85 22 44 43 82 47 83 5
2 8 8 8 13 0 4 37 84 83 176 74 150 141 293 184 393 9 19 23 53 33 75 10 22
25 56 34 77 9 20 16 39 16 42 0 3 9 25 19 49 24 52 80 185 82 195 2 9 3 11 44
122 34 91 173 499 181 530 2 8 26 94 54 190 29 96 53 183 56 192 2 10 6 27 9
38 3 11 7 29 10 40 3 11 7 29 10 40 3 11 7 28 9 37 10 37 57 239 61 261 10 49
15 69 25 110 5 23 13 58 16 78 6 41 11 68 19 104 13 60 41 217 50 285 3 22 10
65 15 95 5 30 12 75 15 100 3 25 8 61 10 80 3 19 7 55 10 80 3 25 7 61 10 80
13 107 21 188 30 310 3 47 8 101 10 120 27 242 27 1102 0 1425 -3 33 -7 92
-10 130 -4 39 -8 84 -10 100 -2 17 -6 57 -10 90 -3 33 -7 76 -10 95 -2 19 -6
60 -10 91 -3 31 -7 65 -9 75 -2 11 -7 48 -11 84 -4 36 -8 67 -10 70 -2 3 -6
25 -9 50 -3 25 -8 54 -10 65 -2 11 -7 45 -12 75 -4 30 -8 57 -9 60 -1 3 -7 39
-14 80 -7 41 -22 116 -33 165 -10 50 -21 101 -23 115 -16 99 -115 496 -179
720 -55 191 -59 204 -65 215 -3 6 -6 15 -7 20 -2 14 -54 174 -67 210 -7 17
-12 32 -12 35 0 3 -6 19 -12 35 -7 17 -35 93 -63 170 -28 77 -58 154 -66 172
-8 17 -14 34 -14 37 0 4 -7 23 -17 44 -9 20 -17 39 -18 42 -6 16 -19 49 -30
75 -7 17 -25 59 -40 95 -157 377 -435 917 -662 1283 -40 65 -73 123 -73 128 0
5 -5 9 -10 9 -6 0 -15 11 -20 25 -8 22 -45 80 -60 95 -3 3 -11 17 -19 33 -8
15 -18 27 -23 27 -5 0 -6 5 -3 10 3 6 1 10 -4 10 -6 0 -11 6 -11 14 0 8 -4 16
-8 18 -7 3 -91 122 -117 166 -5 9 -12 19 -15 22 -3 3 -17 21 -30 40 -14 19
-28 40 -32 45 -5 6 -52 69 -105 140 -106 142 -111 149 -133 173 -8 10 -26 33
-40 52 -13 19 -30 41 -37 48 -6 7 -33 39 -59 72 -26 33 -51 60 -55 60 -5 0 -9
5 -9 10 0 9 -27 43 -70 90 -8 8 -40 45 -70 80 -30 36 -66 77 -80 91 -14 15
-63 69 -110 120 -191 208 -540 549 -760 739 -71 62 -130 112 -170 145 -25 21
-46 41 -48 46 -2 5 -8 9 -14 9 -6 0 -18 8 -27 18 -9 9 -32 29 -53 44 -20 15
-42 33 -50 40 -7 7 -52 42 -98 78 -47 35 -86 68 -88 72 -2 4 -10 8 -17 8 -7 0
-15 3 -17 8 -4 9 -225 172 -234 172 -3 0 -12 6 -19 13 -25 21 -39 32 -100 72
-33 21 -61 42 -63 47 -2 4 -8 8 -14 8 -5 0 -24 11 -42 25 -18 14 -38 25 -44
25 -6 0 -12 4 -14 8 -2 4 -37 29 -78 55 -41 25 -79 50 -85 55 -8 6 -66 41
-230 139 -11 7 -29 17 -40 23 -11 5 -38 21 -60 35 -22 14 -56 32 -75 42 -19 9
-37 20 -40 23 -16 19 -803 410 -826 410 -3 0 -39 16 -80 35 -41 19 -77 35 -80
35 -3 0 -24 9 -47 19 -23 11 -121 49 -217 86 -96 36 -184 70 -195 75 -11 5
-119 42 -240 81 -121 39 -227 74 -235 77 -28 10 -35 12 -158 46 -67 20 -126
37 -131 40 -4 3 -18 7 -32 10 -13 2 -105 25 -204 50 -99 24 -193 47 -210 50
-16 3 -39 8 -50 10 -46 11 -274 58 -320 66 -27 5 -61 11 -75 14 -14 2 -68 12
-120 20 -52 9 -106 18 -120 21 -14 2 -45 6 -70 9 -25 3 -54 7 -65 10 -11 2
-45 7 -76 10 -31 4 -66 8 -77 11 -11 2 -51 6 -89 10 -37 3 -81 8 -98 10 -16 2
-64 7 -105 11 -41 3 -88 8 -105 10 -16 1 -77 6 -135 9 -58 4 -125 9 -150 11
-50 5 -927 14 -932 9z"/>
</g>
</svg>
